<svg id="Group_370" data-name="Group 370" xmlns="http://www.w3.org/2000/svg" xmlns:xlink="http://www.w3.org/1999/xlink" width="234.784" height="35.042" viewBox="0 0 234.784 35.042">
  <defs>
    <clipPath id="clip-path">
      <rect id="Rectangle_331" data-name="Rectangle 331" width="234.784" height="35.042" fill="none"/>
    </clipPath>
  </defs>
  <g id="Group_369" data-name="Group 369" clip-path="url(#clip-path)">
    <path id="Path_934" data-name="Path 934" d="M14.226,21.053a4.428,4.428,0,0,0-4.619-3.842A4.287,4.287,0,0,0,5.153,21.05ZM5.153,23.907A4.623,4.623,0,0,0,9.9,27.971a4.649,4.649,0,0,0,4.188-2.34l4.577,1.252A9.644,9.644,0,0,1,9.853,32.4,9.422,9.422,0,0,1,0,22.716c0-5.666,3.942-9.669,9.549-9.669,5.789,0,9.812,4.065,9.812,9.9l-.041.985H5.153Z" transform="translate(0 -5.678)" fill="#2c2c2c"/>
    <path id="Path_935" data-name="Path 935" d="M45.507,13.011v2.853c1.334-2.074,2.669-2.853,4.927-2.853a6.4,6.4,0,0,1,4.455,1.683c1.17,1.17,1.6,2.628,1.6,5.584v12.09H51.546V20.525a3.83,3.83,0,0,0-.431-2.115A2.861,2.861,0,0,0,48.733,17.2c-1.909,0-3.2,1.437-3.2,3.552V32.369H40.559V13.008Z" transform="translate(-17.649 -5.661)" fill="#2c2c2c"/>
    <path id="Path_936" data-name="Path 936" d="M82.052,22.9c0,3.284,1.909,5.481,4.8,5.481s4.968-2.3,4.968-5.519c0-3.329-1.991-5.666-4.8-5.666-2.936,0-4.968,2.34-4.968,5.707m0-9.9V15.86a6.672,6.672,0,0,1,5.957-2.853,8.831,8.831,0,0,1,5.046,1.481,9.364,9.364,0,0,1,4.1,8.251c0,5.789-3.592,9.628-9.032,9.628a7.4,7.4,0,0,1-6.056-2.586V39.839H77.084V13.008Z" transform="translate(-33.543 -5.659)" fill="#2c2c2c"/>
    <path id="Path_937" data-name="Path 937" d="M122.561,22.823c0,3.162,2.073,5.563,4.762,5.563,2.772,0,5.009-2.586,5.009-5.707,0-3.2-2.032-5.481-4.968-5.481-2.812,0-4.8,2.3-4.8,5.625m9.71-9.812h4.968V32.372h-4.965V29.249a7.4,7.4,0,0,1-6.3,3.121c-5.092,0-8.725-3.942-8.725-9.461,0-5.707,3.839-9.9,9.111-9.9a7.1,7.1,0,0,1,5.912,2.936Z" transform="translate(-51.019 -5.662)" fill="#2c2c2c"/>
    <path id="Path_938" data-name="Path 938" d="M166.239,13.011v3.284a4.582,4.582,0,0,1,1.6-2.422,5.155,5.155,0,0,1,2.936-.862,3.818,3.818,0,0,1,.6.041v5.091c-.391-.041-.78-.082-1.051-.082a3.983,3.983,0,0,0-3.329,1.643c-.6.821-.739,1.6-.739,3.329v9.337h-4.968V13.008Z" transform="translate(-70.185 -5.661)" fill="#2c2c2c"/>
    <path id="Path_939" data-name="Path 939" d="M187.491,22.823c0,3.162,2.074,5.563,4.763,5.563,2.771,0,5.008-2.586,5.008-5.707,0-3.2-2.032-5.481-4.968-5.481-2.812,0-4.8,2.3-4.8,5.625m9.689-9.812h4.968V32.372H197.18V29.249a7.4,7.4,0,0,1-6.3,3.121c-5.092,0-8.725-3.942-8.725-9.461,0-5.707,3.839-9.9,9.111-9.9a7.1,7.1,0,0,1,5.913,2.936Z" transform="translate(-79.264 -5.662)" fill="#2c2c2c"/>
    <path id="Path_940" data-name="Path 940" d="M229.493,17.244c0,3.121,2.074,5.481,4.886,5.481,2.73,0,4.845-2.381,4.845-5.519,0-3.284-2.032-5.666-4.8-5.666-2.853,0-4.927,2.381-4.927,5.707M239.244,0h4.968V26.707h-4.968V23.689a6.642,6.642,0,0,1-6.056,3.018c-5.358,0-8.951-3.839-8.951-9.5a9.8,9.8,0,0,1,2.891-7.349,9.051,9.051,0,0,1,6.139-2.5,7.539,7.539,0,0,1,5.974,2.628Z" transform="translate(-97.576)" fill="#2c2c2c"/>
    <path id="Path_941" data-name="Path 941" d="M272.993,26.745h-4.947V7.387h4.968V26.748Zm.287-23.854A2.751,2.751,0,1,1,270.55.119a2.751,2.751,0,0,1,2.73,2.771" transform="translate(-116.524 -0.038)" fill="#2c2c2c"/>
    <path id="Path_942" data-name="Path 942" d="M288.318,22.6c0,3.121,2.032,5.358,4.886,5.358a4.96,4.96,0,0,0,3.756-1.683,5,5,0,0,0,.944-3.2,5.779,5.779,0,0,0-1.335-4.229,5.054,5.054,0,0,0-3.408-1.417,4.824,4.824,0,0,0-4.845,5.169m9.668-9.582h4.886V30.418c0,3.715-.7,5.87-2.422,7.555a10.434,10.434,0,0,1-7.514,2.73,12.061,12.061,0,0,1-8.868-3.592l3.1-3.121a7.121,7.121,0,0,0,5.584,2.5c3.329,0,5.235-1.95,5.235-5.358V29.288a7.726,7.726,0,0,1-6.385,3.079c-4.968,0-8.56-4.024-8.56-9.549,0-5.87,3.634-9.812,9.074-9.812a6.81,6.81,0,0,1,5.87,2.853Z" transform="translate(-123.165 -5.66)" fill="#2c2c2c"/>
    <path id="Path_943" data-name="Path 943" d="M331.842,13.009V15.9a5.2,5.2,0,0,1,4.968-2.891,4.994,4.994,0,0,1,4.927,3.017,6.5,6.5,0,0,1,9.853-1.334c1.088,1.211,1.437,2.463,1.437,5.194v12.44h-4.968v-11.5c0-2.463-.9-3.634-2.771-3.634-1.848,0-2.891,1.334-2.891,3.634V32.347h-4.968V21c0-2.5-.944-3.8-2.73-3.8-1.868,0-2.853,1.294-2.853,3.8V32.347h-4.968V13.009Z" transform="translate(-142.239 -5.66)" fill="#2c2c2c"/>
    <path id="Path_944" data-name="Path 944" d="M399.81,12.784h-17.9a.809.809,0,0,0-.571,1.38l1.646,1.646H395.8a1.283,1.283,0,0,1,1.283,1.281V30.023l2.137,2.155a.859.859,0,0,0,1.4-.682v-17.9a.809.809,0,0,0-.809-.809" transform="translate(-165.834 -5.563)" fill="#ffb600"/>
    <path id="Path_945" data-name="Path 945" d="M394.465,31.352a3.536,3.536,0,0,0-2.829-2.829,3.549,3.549,0,1,0,2.829,2.83" transform="translate(-168.598 -12.386)" fill="#9d0c45"/>
    <path id="Path_946" data-name="Path 946" d="M395.83,21.431V34.046A4.1,4.1,0,0,1,395.7,35.1a.975.975,0,0,1-1.577.175l-.216-.216-2.788-2.8.08-.067a.713.713,0,0,1,.064-.056,7.446,7.446,0,0,0,.562-.555,4.257,4.257,0,0,0,.284-.363c.036-.044.063-.088.1-.136.016-.028.032-.052.048-.08a1.8,1.8,0,0,0,.128-.223,2.542,2.542,0,0,0,.12-.231,4.219,4.219,0,0,0,.2-.483c.056-.159.1-.327.144-.486.02-.088.036-.164.052-.247s.028-.159.036-.239h0c.009-.048.012-.1.017-.147s.011-.124.016-.184c0-.088.008-.184.008-.275,0-.148-.008-.3-.02-.442-.008-.072-.016-.144-.028-.216a3.854,3.854,0,0,0-.116-.57,2.751,2.751,0,0,0-.107-.35,2.485,2.485,0,0,0-.131-.335,4.078,4.078,0,0,0-.331-.631c-.064-.1-.127-.2-.2-.292s-.144-.192-.223-.279-.156-.175-.239-.263a3.513,3.513,0,0,0-.263-.239c-.088-.075-.184-.152-.279-.223s-.192-.136-.292-.2a4.13,4.13,0,0,0-.631-.331,2.455,2.455,0,0,0-.335-.131,2.73,2.73,0,0,0-.35-.108,3.936,3.936,0,0,0-.571-.116c-.107-.017-.216-.028-.327-.036a.614.614,0,0,0-.088,0c-.08,0-.159-.008-.244-.008a2.509,2.509,0,0,0-.3.012c-.1.012-.2.016-.3.028h0c-.076.009-.151.02-.228.036a4.755,4.755,0,0,0-2.841,1.656.916.916,0,0,0-.055.075c-.009,0-.011.012-.017.016L381.5,22.556l-.18-.18a1.283,1.283,0,0,1,.284-1.831,1.033,1.033,0,0,1,.562-.164h12.615a1.051,1.051,0,0,1,1.051,1.051" transform="translate(-165.812 -8.868)" fill="#eb3d28"/>
  </g>
</svg>
